<svg width="34" height="32" viewBox="0 0 34 32" fill="none" xmlns="http://www.w3.org/2000/svg">
<rect width="34.0002" height="32.0002" rx="4" fill="#9E00FF"/>
<path d="M24.0001 20.5001C24.0001 19.9875 23.9949 19.877 23.9806 19.8048C23.9015 19.4082 23.5917 19.0986 23.1954 19.0196C23.1231 19.0052 23.0127 19.0001 22.5001 19.0001H11.5001C10.9875 19.0001 10.877 19.0052 10.8048 19.0196C10.4083 19.0986 10.0986 19.4083 10.0196 19.8048C10.0052 19.877 10.0001 19.9875 10.0001 20.5001C10.0001 21.0127 10.0052 21.1231 10.0196 21.1954C10.0986 21.5917 10.4082 21.9016 10.8048 21.9806C10.8771 21.9949 10.9881 22.0001 11.5001 22.0001H22.5001C23.0121 22.0001 23.123 21.9949 23.1954 21.9806C23.5919 21.9016 23.9016 21.5919 23.9806 21.1954C23.9949 21.1231 24.0001 21.0127 24.0001 20.5001ZM24.0001 11.5001C24.0001 10.9875 23.9949 10.877 23.9806 10.8048C23.9015 10.4082 23.5917 10.0986 23.1954 10.0196C23.1231 10.0052 23.0127 10.0001 22.5001 10.0001H11.5001C10.9875 10.0001 10.877 10.0052 10.8048 10.0196C10.4083 10.0986 10.0986 10.4083 10.0196 10.8048C10.0052 10.877 10.0001 10.9875 10.0001 11.5001C10.0001 12.0127 10.0052 12.1231 10.0196 12.1954C10.0986 12.5917 10.4082 12.9016 10.8048 12.9806C10.8771 12.9949 10.9881 13.0001 11.5001 13.0001H22.5001C23.0121 13.0001 23.123 12.9949 23.1954 12.9806C23.5919 12.9016 23.9016 12.5919 23.9806 12.1954C23.9949 12.1232 24.0001 12.0127 24.0001 11.5001ZM26.0001 20.5001C26.0001 20.9167 26.0049 21.271 25.9425 21.585C25.7057 22.7751 24.7751 23.7057 23.585 23.9425C23.2711 24.0049 22.9172 24.0001 22.5001 24.0001H11.5001C11.0829 24.0001 10.7291 24.0049 10.4151 23.9425C9.22516 23.7058 8.29444 22.7752 8.0577 21.585C7.99527 21.271 8.00009 20.9167 8.00009 20.5001C8.00009 20.0835 7.99527 19.7292 8.0577 19.4151C8.29442 18.2251 9.22505 17.2944 10.4151 17.0577C10.7292 16.9953 11.0835 17.0001 11.5001 17.0001H22.5001C22.9167 17.0001 23.271 16.9953 23.585 17.0577C24.7753 17.2944 25.7058 18.2252 25.9425 19.4151C26.0049 19.7292 26.0001 20.0835 26.0001 20.5001ZM26.0001 11.5001C26.0001 11.9167 26.0049 12.271 25.9425 12.585C25.7057 13.7751 24.7751 14.7057 23.585 14.9425C23.2711 15.0049 22.9172 15.0001 22.5001 15.0001H11.5001C11.0829 15.0001 10.7291 15.0049 10.4151 14.9425C9.22516 14.7058 8.29444 13.7752 8.0577 12.585C7.99527 12.271 8.00009 11.9167 8.00009 11.5001C8.00009 11.0835 7.99527 10.7292 8.0577 10.4151C8.29442 9.22505 9.22505 8.29442 10.4151 8.0577C10.7292 7.99527 11.0835 8.00009 11.5001 8.00009H22.5001C22.9167 8.00009 23.271 7.99528 23.585 8.0577C24.7753 8.29445 25.7058 9.22519 25.9425 10.4151C26.0049 10.7292 26.0001 11.0835 26.0001 11.5001Z" fill="white"/>
<path d="M10 9.00009H24V14.0001H10V9.00009Z" fill="white"/>
<path d="M10 18.0001H24V23.0001H10V18.0001Z" fill="white"/>
</svg>
