<svg width="71" height="16" viewBox="0 0 71 16" fill="none" xmlns="http://www.w3.org/2000/svg">
<path d="M16.0001 12.5001C16.0001 11.9875 15.9949 11.877 15.9806 11.8048C15.9015 11.4082 15.5917 11.0986 15.1954 11.0196C15.1231 11.0052 15.0127 11.0001 14.5001 11.0001H3.50009C2.98751 11.0001 2.87702 11.0052 2.80477 11.0196C2.40834 11.0986 2.0986 11.4083 2.01962 11.8048C2.00525 11.877 2.00009 11.9875 2.00009 12.5001C2.00009 13.0127 2.00525 13.1231 2.01962 13.1954C2.09859 13.5917 2.40822 13.9016 2.80477 13.9806C2.87714 13.9949 2.98808 14.0001 3.50009 14.0001H14.5001C15.0121 14.0001 15.123 13.9949 15.1954 13.9806C15.5919 13.9016 15.9016 13.5919 15.9806 13.1954C15.9949 13.1231 16.0001 13.0127 16.0001 12.5001ZM16.0001 3.50009C16.0001 2.98751 15.9949 2.87702 15.9806 2.80477C15.9015 2.40818 15.5917 2.09857 15.1954 2.01962C15.1231 2.00525 15.0127 2.00009 14.5001 2.00009H3.50009C2.98751 2.00009 2.87702 2.00525 2.80477 2.01962C2.40834 2.0986 2.0986 2.40834 2.01962 2.80477C2.00525 2.87702 2.00009 2.98754 2.00009 3.50009C2.00009 4.01266 2.00525 4.12315 2.01962 4.1954C2.09859 4.59174 2.40822 4.90156 2.80477 4.98055C2.87714 4.99495 2.98808 5.00009 3.50009 5.00009H14.5001C15.0121 5.00009 15.123 4.99495 15.1954 4.98055C15.5919 4.90159 15.9016 4.59189 15.9806 4.1954C15.9949 4.12315 16.0001 4.01267 16.0001 3.50009ZM18.0001 12.5001C18.0001 12.9167 18.0049 13.271 17.9425 13.585C17.7057 14.7751 16.7751 15.7057 15.585 15.9425C15.2711 16.0049 14.9172 16.0001 14.5001 16.0001H3.50009C3.08292 16.0001 2.72908 16.0049 2.41513 15.9425C1.22516 15.7058 0.294444 14.7752 0.0577032 13.585C-0.00472924 13.271 8.60309e-05 12.9167 8.60309e-05 12.5001C8.56911e-05 12.0835 -0.00472753 11.7292 0.0577032 11.4151C0.294423 10.2251 1.22505 9.29442 2.41513 9.0577C2.72921 8.99527 3.08347 9.00009 3.50009 9.00009H14.5001C14.9167 9.00009 15.271 8.99528 15.585 9.0577C16.7753 9.29445 17.7058 10.2252 17.9425 11.4151C18.0049 11.7292 18.0001 12.0835 18.0001 12.5001ZM18.0001 3.50009C18.0001 3.91666 18.0049 4.27098 17.9425 4.58505C17.7057 5.77512 16.7751 6.70575 15.585 6.94247C15.2711 7.00486 14.9172 7.00009 14.5001 7.00009H3.50009C3.08292 7.00009 2.72908 7.00487 2.41513 6.94247C1.22516 6.70577 0.294444 5.77522 0.0577032 4.58505C-0.00472931 4.27097 8.60309e-05 3.91671 8.60309e-05 3.50009C8.56911e-05 3.0835 -0.00472771 2.7292 0.0577032 2.41513C0.294423 1.22505 1.22505 0.294423 2.41513 0.0577032C2.72921 -0.00472956 3.08347 8.60138e-05 3.50009 8.60138e-05H14.5001C14.9167 8.60138e-05 15.271 -0.00472092 15.585 0.0577032C16.7753 0.29445 17.7058 1.22519 17.9425 2.41513C18.0049 2.7292 18.0001 3.08349 18.0001 3.50009Z" fill="#9E00FF"/>
<path d="M2 1.00009H16V6.00009H2V1.00009Z" fill="#9E00FF"/>
<path d="M2 10.0001H16V15.0001H2V10.0001Z" fill="#9E00FF"/>
<path d="M25.456 8.84009C25.504 9.86409 25.896 10.7201 26.632 11.4081C27.384 12.0961 28.432 12.4401 29.776 12.4401C30.848 12.4401 31.664 12.2721 32.224 11.9361C32.8 11.6001 33.248 11.1601 33.568 10.6161H37.168C36.768 11.4481 36.264 12.1601 35.656 12.7521C35.064 13.3441 34.288 13.8401 33.328 14.2401C32.384 14.6401 31.232 14.8401 29.872 14.8401C28.08 14.8401 26.592 14.5361 25.408 13.9281C24.224 13.3041 23.36 12.4881 22.816 11.4801C22.272 10.4721 22 9.35209 22 8.12009C22 6.04009 22.704 4.36009 24.112 3.08009C25.52 1.80009 27.368 1.16009 29.656 1.16009C31.4 1.16009 32.856 1.48009 34.024 2.12009C35.192 2.74409 36.056 3.60009 36.616 4.68809C37.176 5.77609 37.456 7.00009 37.456 8.36009V8.84009H25.456ZM34 6.72809C33.84 5.67209 33.36 4.85609 32.56 4.28009C31.776 3.70409 30.824 3.41609 29.704 3.41609C28.68 3.41609 27.776 3.69609 26.992 4.25609C26.208 4.81609 25.696 5.64009 25.456 6.72809H34Z" fill="white"/>
<path d="M43.9043 7.80809L38.6003 1.64009H42.8723L46.1363 5.76809L49.4723 1.64009H53.7443L48.3923 7.80809L54.1283 14.3601H49.7123L46.1363 9.84809L42.4643 14.3601H38.1923L43.9043 7.80809Z" fill="white"/>
<path d="M68.9468 11.4561C68.9468 11.6801 69.0028 11.8561 69.1148 11.9841C69.2268 12.1121 69.4108 12.1761 69.6668 12.1761C70.2588 12.1761 70.6188 12.1521 70.7468 12.1041V14.4321C69.7388 14.6241 68.9548 14.7201 68.3948 14.7201C67.5948 14.7201 66.9948 14.5761 66.5948 14.2881C66.1948 14.0001 65.9628 13.6001 65.8988 13.0881C65.3708 13.6161 64.6028 14.0401 63.5948 14.3601C62.6028 14.6801 61.3788 14.8401 59.9228 14.8401C58.2428 14.8401 56.9548 14.4881 56.0588 13.7841C55.1788 13.0801 54.7388 12.1041 54.7388 10.8561C54.7388 10.0401 54.9308 9.36009 55.3148 8.81609C55.7148 8.25609 56.2828 7.82409 57.0188 7.52009C57.7548 7.21609 58.8188 7.00009 60.2108 6.87209C61.6028 6.74409 62.6828 6.63209 63.4508 6.53609C64.2188 6.42409 64.7868 6.29609 65.1548 6.15209C65.5228 5.99209 65.7068 5.68809 65.7068 5.24009C65.7068 4.63209 65.4028 4.17609 64.7948 3.87209C64.2028 3.56809 63.3068 3.41609 62.1068 3.41609C59.8988 3.41609 58.7388 4.12009 58.6268 5.52809H55.3868C55.5788 4.05609 56.2108 2.96009 57.2828 2.24009C58.3548 1.52009 59.9628 1.16009 62.1068 1.16009C63.0988 1.16009 64.0268 1.22409 64.8908 1.35209C65.7548 1.48009 66.5148 1.72809 67.1708 2.09609C67.8428 2.44809 68.3068 2.87209 68.5628 3.36809C68.8188 3.86409 68.9468 4.55209 68.9468 5.43209V11.4561ZM65.6348 8.02409C64.8668 8.29609 64.0348 8.48809 63.1388 8.60009C62.2588 8.69609 61.6988 8.76009 61.4588 8.79209C60.4348 8.92009 59.6348 9.10409 59.0588 9.34409C58.4828 9.58409 58.1948 10.0481 58.1948 10.7361C58.1948 11.3761 58.4188 11.8721 58.8668 12.2241C59.3148 12.5601 59.9788 12.7281 60.8588 12.7281C62.2348 12.7281 63.3708 12.4241 64.2668 11.8161C65.1788 11.2081 65.6348 10.3521 65.6348 9.24809V8.02409Z" fill="white"/>
</svg>
